<svg width="86" height="83" viewBox="0 0 86 83" fill="none" xmlns="http://www.w3.org/2000/svg">
<path d="M67.493 13.0864C64.1547 9.02712 57.7288 8.76042 53.1903 12.4928C49.1893 15.7832 47.9254 20.9413 49.9164 24.9447L25.7907 44.7853C22.2471 42.0588 16.9421 42.3029 12.941 45.5933C8.40253 49.3258 7.42345 55.6822 10.7618 59.7415C12.2113 61.5041 14.2299 62.6196 16.5382 62.8702C16.3822 65.2368 17.0431 67.3794 18.4927 69.142C21.831 73.2013 28.2568 73.468 32.7953 69.7356C36.7964 66.4452 38.0602 61.2872 36.0693 57.2838L60.1352 37.4922C63.6789 40.2187 68.9839 39.9746 72.9849 36.6842C77.5234 32.9518 78.5025 26.5954 75.1642 22.5361C73.7146 20.7735 71.6961 19.6579 69.3878 19.4073C69.6034 16.9916 68.9426 14.849 67.493 13.0864ZM67.0855 23.181C69.0424 23.0042 70.8571 23.7502 71.9992 25.1389C74.0637 27.6493 73.4636 31.5452 70.6569 33.8534C67.9099 36.1124 64.0593 36.0558 61.9351 33.5945C61.2762 32.7934 60.0764 32.7952 59.1807 33.5318L32.3677 55.5825C31.472 56.3191 31.3422 57.5003 31.8974 58.2972C33.8583 60.8032 33.274 64.5966 30.4673 66.9048C27.6606 69.213 23.7221 69.0495 21.6577 66.5391C20.5156 65.1504 20.1341 63.2258 20.6853 61.3399C20.8837 60.729 20.7115 60.1544 20.3601 59.7271C20.0087 59.2998 19.4184 59.069 18.8405 59.0966C16.8836 59.2733 15.0688 58.5273 13.9268 57.1386C11.8623 54.6282 12.4624 50.7324 15.2691 48.4242C18.0161 46.1651 21.8666 46.2217 23.9908 48.683C24.6497 49.4842 25.8495 49.4824 26.7453 48.7457L53.6777 26.5969C54.5734 25.8602 54.7032 24.679 54.148 23.8822C52.1871 21.3761 52.7714 17.5827 55.5781 15.2746C58.3848 12.9664 62.3232 13.1298 64.3877 15.6402C65.5298 17.0289 65.9113 18.9535 65.3601 20.8394C65.1617 21.4503 65.3339 22.0249 65.6853 22.4522C65.9173 22.9777 66.5076 23.2086 67.0855 23.181Z" fill="#A0D6E7" fill-opacity="0.5"/>
<path d="M33.8565 30.0043C34.7522 29.2677 34.9417 28.0374 34.2828 27.2362L31.1641 23.444C30.5052 22.6428 29.2615 22.5912 28.3658 23.3278C27.47 24.0645 27.2805 25.2948 27.9394 26.0959L31.0581 29.8882C31.717 30.6894 32.9607 30.741 33.8565 30.0043Z" fill="#A0D6E7" fill-opacity="0.5"/>
<path d="M40.6751 26.3661C41.0018 26.2765 41.2249 26.1826 41.4637 25.9861C42.0609 25.495 42.3945 24.6834 42.2381 24.0063L41.2183 19.1146C41.0056 18.1256 39.9445 17.5656 38.8607 17.8302C37.8208 18.1482 37.1289 19.2544 37.2819 20.2925L38.3016 25.1842C38.5144 26.1732 39.5755 26.7332 40.6751 26.3661Z" fill="#A0D6E7" fill-opacity="0.5"/>
<path d="M26.3094 37.0165C27.0472 37.3051 27.8043 37.1301 28.4015 36.639C28.6403 36.4426 28.8353 36.1927 28.9266 35.9386C29.4393 34.9797 29.0948 33.8304 28.1216 33.3773L23.5188 31.4323C22.5895 31.0326 21.3705 31.4979 20.798 32.5059C20.2852 33.4648 20.6297 34.6141 21.603 35.0672L26.3094 37.0165Z" fill="#A0D6E7" fill-opacity="0.5"/>
<path d="M52.1293 52.2238C51.2336 52.9605 51.0441 54.1907 51.703 54.9919L54.8217 58.7842C55.4805 59.5854 56.7243 59.637 57.62 58.9003C58.5158 58.1637 58.7053 56.9334 58.0464 56.1322L54.9277 52.34C54.2688 51.5388 53.0251 51.4872 52.1293 52.2238Z" fill="#A0D6E7" fill-opacity="0.5"/>
<path d="M45.3106 55.861C44.2708 56.179 43.5789 57.2852 43.7319 58.3234L44.7516 63.2151C44.9643 64.2041 46.0254 64.764 47.1092 64.4995C47.4359 64.4098 47.659 64.3159 47.8979 64.1195C48.495 63.6284 48.8287 62.8168 48.6722 62.1396L47.6525 57.248C47.4714 56.0539 46.4102 55.494 45.3106 55.861Z" fill="#A0D6E7" fill-opacity="0.5"/>
<path d="M59.6764 45.2111C58.7471 44.8114 57.5281 45.2767 56.9556 46.2847C56.4428 47.2436 56.7873 48.3929 57.7606 48.846L62.3633 50.791C63.1011 51.0796 63.8582 50.9047 64.4554 50.4135C64.6943 50.2171 64.8892 49.9673 64.9805 49.7131C65.4933 48.7542 65.1488 47.6049 64.1755 47.1518L59.6764 45.2111Z" fill="#A0D6E7" fill-opacity="0.5"/>
</svg>
