<svg width="128" height="127" viewBox="0 0 128 127" fill="none" xmlns="http://www.w3.org/2000/svg">
<path d="M83.8902 64.2508C89.8909 74.0137 104.298 63.0257 105.64 53.9992C116.139 40.6562 101.414 28.7096 90.3756 40.9079C80.6783 44.0796 73.7845 60.6198 83.8902 64.2508ZM85.6401 62.0269C76.074 59.5407 84.889 45.5925 91.4547 43.1973L91.7573 42.3552C101.349 31.5386 112.165 41.1302 102.574 51.9467L102.271 52.7889C101.535 60.1311 89.9565 71.1847 84.7979 61.7243L85.6401 62.0269Z" fill="#124C5F" fill-opacity="0.5"/>
<path d="M59.7306 44.1601C65.7313 53.923 80.1388 42.9351 81.4803 33.9085C91.9796 20.5656 77.2549 8.61898 65.9135 21.6594C56.2162 24.8311 49.3224 41.3712 59.4281 45.0022L59.7306 44.1601ZM61.4805 41.9363C51.9144 39.45 60.7294 25.5019 67.2952 23.1067L67.5978 22.2645C77.1893 11.448 88.0059 21.0395 78.4143 31.8561L78.1117 32.6982C77.3754 40.0405 65.797 51.094 60.6384 41.6337L61.4805 41.9363Z" fill="#124C5F" fill-opacity="0.5"/>
<path d="M87.9187 98.0272C93.6824 105.803 105.669 101.552 105.326 91.9207C112.629 82.1833 98.746 70.5393 89.7596 79.6716C80.6675 81.159 78.9577 93.8567 87.0765 97.7246L87.9187 98.0272ZM89.6685 95.8034L88.8264 95.5008C82.3919 92.238 84.036 82.3693 90.8387 81.961L91.9834 81.4214C98.3778 74.2104 109.194 83.8019 102.8 91.013L102.497 91.8551C102.906 98.6578 93.748 102.974 89.366 96.6455L89.6685 95.8034Z" fill="#124C5F" fill-opacity="0.5"/>
<path d="M26.2567 47.3465C32.0204 55.1226 44.0072 50.8718 43.6644 41.2401C50.9666 31.5026 37.084 19.8586 28.0976 28.9909C19.0055 30.4783 17.2958 43.176 25.4145 47.044L26.2567 47.3465ZM28.0066 45.1227L27.1644 44.8201C20.7299 41.5573 22.374 31.6887 29.1767 31.2803L30.3215 30.7408C36.7158 23.5297 47.5324 33.1213 41.138 40.3323L40.8354 41.1745C41.2438 47.9772 32.086 52.2936 27.704 45.9648L28.0066 45.1227Z" fill="#124C5F" fill-opacity="0.5"/>
<path d="M75.3521 90.6595C93.1535 67.5791 55.1114 35.8442 35.9283 57.4773C4.67816 62.4136 16.0088 86.4527 32.6547 100.991C49.6032 114.688 76.3146 122.384 75.3521 90.6595ZM72.8256 89.7518L72.5231 90.5939C73.5513 119.489 49.3663 112.701 34.102 99.6096C18.8378 86.5183 6.59941 65.0057 35.8627 60.3063L37.0074 59.7668C54.7432 39.5153 88.8772 68.8952 72.8256 89.7518Z" fill="#124C5F" fill-opacity="0.5"/>
</svg>
