<svg width="94" height="101" viewBox="0 0 94 101" fill="none" xmlns="http://www.w3.org/2000/svg">
<path d="M44.8069 48.4317C49.8164 55.7673 56.6664 52.582 66.3602 55.1078C80.5096 58.5252 85.8268 51.1954 83.0353 43.8121C80.3351 36.7307 71.5349 36.2363 67.0537 29.7248C62.5726 23.2134 64.5957 13.2961 59.2076 8.39909C53.8195 3.50211 46.0431 7.31501 45.0829 23.5135C44.534 34.6143 40.0519 41.0147 44.8069 48.4317Z" fill="#FFAA00"/>
<path d="M52.2356 70.2223C54.0433 62.3604 59.3995 57.0045 63.8745 58.883C68.3495 60.7616 70.7235 68.6096 68.7527 76.8548C66.9451 84.7167 61.5888 90.0726 57.1138 88.1941C52.6388 86.3155 50.5193 78.3861 52.2356 70.2223Z" fill="#FFAA00"/>
<path d="M28.3164 34.5074C35.6619 34.8052 41.2921 30.3548 41.012 24.8163C40.732 19.2778 34.5806 14.6252 27.3264 14.6292C19.981 14.3315 14.3508 18.7818 14.6308 24.3203C14.8196 29.5569 20.9709 34.2096 28.3164 34.5074Z" fill="#FFAA00"/>
<path d="M30.0104 64.0924C35.0928 57.831 42.308 55.853 46.0587 59.9497C49.8094 64.0464 48.7845 72.651 43.7022 78.9124C38.6199 85.1739 31.4046 87.1519 27.6539 83.0551C24.1576 78.877 25.0194 70.6556 30.0104 64.0924Z" fill="#FFAA00"/>
<path d="M27.4599 60.2737C34.1273 56.4846 37.8267 49.3415 35.3286 43.8507C32.9218 38.6618 25.5569 37.377 18.6351 41.2475C11.9677 45.0366 8.26828 52.1797 10.7664 57.6705C13.1732 62.8594 20.7926 64.0628 27.4599 60.2737Z" fill="#FFAA00"/>
</svg>
