<svg width="66" height="68" viewBox="0 0 66 68" fill="none" xmlns="http://www.w3.org/2000/svg">
<path d="M32.1777 33.8837C28.3236 37.0073 30.1328 41.496 29.0342 47.7564C27.5226 56.8681 31.6946 60.7001 35.5677 59.2093C39.4407 57.7186 39.4142 51.8383 43.1087 49.3758C46.5776 46.7061 52.0647 48.5152 54.5353 45.1305C57.1187 41.8493 54.8256 36.5123 45.9139 35.1925C39.9783 34.385 36.2738 31.1843 32.1777 33.8837Z" fill="#FFE55E"/>
<path d="M19.4124 37.919C23.9878 39.8143 27.1245 43.6567 26.4329 46.4822C25.6497 49.4158 21.3204 50.2459 16.745 48.3505C12.1696 46.4552 9.03292 42.6128 9.72448 39.7873C10.5077 36.8537 14.837 36.0236 19.4124 37.919Z" fill="#FFAA00"/>
<path d="M39.2239 23.3947C39.3075 28.3004 41.8352 32.2317 44.7869 32.3273C47.7387 32.4228 50.1625 28.6129 50.079 23.7073C49.9954 18.8016 47.4677 14.8702 44.5159 14.7747C41.4682 14.7923 39.0444 18.6021 39.2239 23.3947Z" fill="#FFAA00"/>
<path d="M23.011 23.479C26.8464 27.2016 28.1338 32.1788 26.0146 34.4266C23.8955 36.6744 19.0365 35.4071 15.201 31.6845C11.3656 27.9619 10.0782 22.9847 12.1974 20.7369C14.3165 18.4891 19.1755 19.7564 23.011 23.479Z" fill="#FFAA00"/>
<path d="M25.0344 21.7814C27.2043 26.3014 31.1353 28.7458 33.7674 27.4701C36.4921 26.0852 36.9425 21.445 34.8815 17.0249C32.7115 12.5049 28.7805 10.0606 26.1484 11.3362C23.4075 12.5119 22.8644 17.2614 25.0344 21.7814Z" fill="#FFAA00"/>
</svg>
