<svg width="142" height="109" viewBox="0 0 142 109" fill="none" xmlns="http://www.w3.org/2000/svg">
<path d="M125.096 36.0677C123.893 30.9844 117.291 27.4705 106.412 26.0998C106.812 24.5521 106.865 22.9528 106.54 21.3929C105.277 15.3469 98.8577 11.5569 92.2314 12.9411C90.738 13.253 89.334 13.8092 88.0451 14.5985C85.2943 12.5759 81.2937 11.8264 77.3768 12.6446C75.6017 13.0154 73.9029 13.6952 72.4232 14.6248C69.1553 12.92 65.0742 12.4148 61.1035 13.2442C55.7512 14.3623 51.3723 17.6717 49.4933 21.9659C43.0588 22.5993 38.0242 26.6101 36.8082 31.5178C31.5518 32.7132 27.97 37.208 28.2709 41.9583C18.0133 47.7914 12.9232 53.9204 13.8962 59.2927L12.6887 86.5833L12.7112 86.8608C15.2033 98.7913 44.5 102.424 79.4096 95.1316C114.318 87.8398 139.712 72.7819 137.22 60.8528L125.096 36.0677ZM37.4748 33.6625C37.564 33.6439 37.6558 33.6306 37.7461 33.6176L38.7281 33.4598L38.8554 32.662C39.4652 28.8339 43.3049 25.4465 48.1915 24.4258C48.8795 24.2821 49.6002 24.1891 50.3355 24.1448L51.0663 24.1L51.3188 23.4135C52.7553 19.5117 56.6786 16.454 61.5595 15.4344C65.2471 14.6642 69.0207 15.1967 71.9066 16.897L72.528 17.2621L73.1166 16.8481C74.4809 15.8895 76.1098 15.1932 77.8325 14.8334C81.4069 14.0867 85.0108 14.8467 87.2378 16.8162L87.8963 17.4011L88.6192 16.894C89.8467 16.0304 91.2149 15.4374 92.6885 15.1295C98.1102 13.997 103.339 17.0133 104.35 21.8503C104.681 23.4372 104.503 25.0743 103.88 26.6183L103.878 26.6217C103.876 26.6251 103.874 26.63 103.872 26.6348C103.824 26.7512 103.794 26.8697 103.742 26.9853L103.705 27.067L102.944 28.699L102.964 28.6962L104.838 28.5648C109.242 28.2564 112.778 29.654 113.245 31.8878C113.526 33.2312 112.616 34.4982 111.857 35.2875C111.736 35.4133 111.62 35.5292 111.511 35.6302L109.958 37.0669L112.019 37.5392C114.127 38.0221 115.575 39.2148 115.892 40.7323C116.364 42.9944 112.443 46.3102 108.266 47.1828L108.086 47.2203L107.927 47.3142C106.156 48.3577 104.301 49.3361 102.398 50.2832C94.3122 54.2976 85.0634 57.4276 74.7664 59.5785C57.1524 63.2578 41.3539 63.061 35.9454 62.8493C34.6988 62.8009 34.0046 62.7524 33.97 62.7493L33.6582 62.7701C28.9783 63.7477 24.4677 61.1649 23.6007 57.0144C22.7337 52.8639 25.8336 48.693 30.5135 47.7154C30.8065 47.6542 31.0994 47.6063 31.3881 47.5741L33.4666 47.3261L32.1048 45.7358C31.3465 44.8497 30.8455 43.8448 30.6172 42.752C30.6036 42.6869 30.5963 42.6234 30.5872 42.5588L30.5029 41.9855C30.1678 38.2026 33.1417 34.5676 37.4748 33.6625ZM28.7231 44.2719C28.7383 44.316 28.7593 44.3604 28.7762 44.4056C28.8012 44.4758 28.8315 44.5433 28.8579 44.6131C29.0006 44.9778 29.1622 45.334 29.3537 45.6781C29.356 45.6821 29.3572 45.6877 29.3595 45.6917C23.868 47.183 20.3377 52.3273 21.4122 57.4716C22.5214 62.7814 28.1316 66.1302 33.9622 64.9891C34.2437 65.0071 34.8972 65.0449 35.8609 65.083C41.3886 65.2993 57.3884 65.491 75.2247 61.7653C75.2275 61.7647 75.2275 61.7647 75.2304 61.7641C88.1121 59.0733 99.44 54.8914 108.91 49.3337C113.939 48.2107 118.892 44.1462 118.084 40.2774C117.984 39.8018 117.823 39.3494 117.604 38.9224C116.95 37.6423 115.784 36.6006 114.245 35.9277C115.327 34.4697 115.745 32.9167 115.435 31.4318C115.413 31.3256 115.377 31.2238 115.346 31.1194C115.322 31.0314 115.304 30.9436 115.275 30.8611C115.239 30.7607 115.194 30.6652 115.153 30.5688C115.113 30.4767 115.078 30.3851 115.032 30.2942C115.022 30.2727 115.014 30.2507 115.003 30.2278C119.608 31.7966 122.401 34.0202 122.963 36.7098C124.667 44.8707 105.023 58.0907 73.0653 64.7662C41.1071 71.4418 17.8151 67.1904 16.1105 59.0296C15.2275 54.8027 19.809 49.4639 28.7231 44.2719ZM78.9516 92.9462C46.532 99.7181 17.3102 96.7764 14.9269 86.5339L15.9574 63.2617C23.0206 70.872 46.3705 72.6278 73.5227 66.9561C100.672 61.2851 121.369 50.3284 124.792 40.5248L135.056 61.4394C136.972 71.7809 111.371 86.1742 78.9516 92.9462Z" fill="#124C5F" fill-opacity="0.5"/>
<path d="M94.3938 71.1028C93.7891 68.2079 90.9455 66.3495 88.0507 66.9542C85.2492 67.5394 83.4133 70.229 83.8547 73.028L66.4869 76.6558C65.7695 73.9145 63.0105 72.1847 60.2076 72.7702C57.3156 73.3743 55.4537 76.2156 56.0584 79.1105C56.4112 80.7992 57.5247 82.1341 58.9667 82.8345C57.9257 84.0536 57.4399 85.724 57.7924 87.4114C58.3971 90.3063 61.2412 92.1675 64.1332 91.5634C66.9361 90.978 68.7728 88.2852 68.3315 85.4862L85.6992 81.8584C86.4166 84.5997 89.1763 86.3323 91.9763 85.7474C94.8711 85.1428 96.7324 82.2986 96.1277 79.4038C95.7755 77.7178 94.66 76.3804 93.2209 75.6794C94.259 74.4609 94.7468 72.793 94.3938 71.1028ZM93.9406 79.8606C94.2928 81.5466 93.2048 83.2054 91.5188 83.5575C89.8357 83.9091 88.1775 82.8239 87.8253 81.138C87.783 80.9356 87.7631 80.727 87.7619 80.516L87.7536 79.1467L65.3634 83.8237L65.9039 85.0818C65.9872 85.2756 66.0511 85.475 66.0933 85.6775C66.4455 87.3634 65.3603 89.0217 63.6744 89.3738C61.9898 89.7257 60.3316 88.6405 59.9794 86.9546C59.6279 85.2714 60.713 83.6132 62.3976 83.2613L61.9401 81.0714C60.2556 81.4233 58.5974 80.3381 58.2458 78.655C57.8936 76.9691 58.9788 75.3108 60.6633 74.959C62.3493 74.6068 64.0075 75.692 64.3597 77.3779C64.4026 77.5832 64.4239 77.7915 64.4251 78.0025L64.4334 79.3717L86.8222 74.695L86.2817 73.437C86.1978 73.2403 86.1325 73.0412 86.0903 72.8387C85.7381 71.1528 86.8233 69.4946 88.5064 69.143C90.1923 68.7908 91.8534 69.8754 92.2056 71.5614C92.5571 73.2445 91.4691 74.9033 89.7832 75.2555L90.2406 77.4454C91.9277 77.0915 93.5888 78.1761 93.9406 79.8606Z" fill="#124C5F" fill-opacity="0.5"/>
</svg>
