<svg width="83" height="86" viewBox="0 0 83 86" fill="none" xmlns="http://www.w3.org/2000/svg">
<path d="M41.0272 40.9506C37.7094 35.3179 31.81 36.9568 24.1281 34.494C12.9363 30.9609 7.60822 35.9163 9.01449 41.3543C10.2834 46.6764 17.7044 47.738 20.2229 52.9329C23.1041 57.9611 20.1106 64.8854 24.0298 68.8994C27.8117 72.7975 34.6861 70.7997 37.5971 59.0815C39.4921 51.2308 44.1198 46.8658 41.0272 40.9506Z" fill="#FF6E9F"/>
<path d="M37.6955 24.6767C35.2156 30.3805 30.2143 33.4855 26.6548 31.901C23.0954 30.3164 22.2521 24.1722 24.8694 18.5842C27.3493 12.8804 32.2133 9.65955 35.9101 11.3599C39.6068 13.0603 40.1755 18.9729 37.6955 24.6767Z" fill="#FF6E9F"/>
<path d="M52.8728 52.5944C46.8635 51.7784 41.7003 54.5106 41.2087 58.5842C40.7172 62.6578 45.2489 66.4797 51.2334 67.0386C57.2427 67.8545 62.4059 65.1223 62.8975 61.0487C63.389 56.9751 58.8573 53.1532 52.8728 52.5944Z" fill="#FF6E9F"/>
<path d="M55.2069 30.9407C50.3046 35.074 44.1937 35.8259 41.4857 32.5972C38.7777 29.3685 40.7083 23.2015 45.6107 19.0681C50.513 14.9348 56.6238 14.1829 59.3319 17.4116C62.0399 20.6403 60.1092 26.8073 55.2069 30.9407Z" fill="#FF6E9F"/>
<path d="M56.7533 33.8982C50.6534 36.0767 46.9623 40.9953 48.3575 45.0066C49.7528 49.018 55.6989 50.4893 61.7987 48.3108C67.8986 46.1322 71.5897 41.2137 70.1945 37.2024C68.7992 33.191 62.8531 31.7197 56.7533 33.8982Z" fill="#FF6E9F"/>
</svg>
