<svg
              width="8"
              height="34"
              viewBox="0 0 8 34"
              fill="none"
              xmlns="http://www.w3.org/2000/svg"
            >
              <path
                d="M1.19999 0.378828C0.529994 0.858828 0.219994 1.72883 0.219994 2.63883C0.219994 3.99883 1.03999 5.09883 2.40999 5.09883C4.95999 5.09883 3.88999 1.60883 5.67999 1.60883C6.11999 1.60883 6.75999 1.92883 6.75999 2.98883C6.75999 3.53883 6.50999 4.00883 6.13999 4.24883L6.84999 5.02883C7.49999 4.49883 7.65999 3.75883 7.65999 2.98883C7.65999 1.28883 6.50999 0.588828 5.67999 0.588828C2.91999 0.588828 3.92999 4.07883 2.29999 4.07883C1.51999 4.07883 1.11999 3.29883 1.11999 2.66883C1.11999 2.09883 1.35999 1.50883 1.87999 1.16883L1.19999 0.378828ZM6.55999 11.5455C7.30999 10.9755 7.65999 9.99547 7.65999 9.06547C7.65999 6.88547 6.07999 5.37547 3.87999 5.37547C2.09999 5.37547 0.219994 6.76547 0.219993 9.01547C0.219993 10.6355 1.16999 11.4855 1.45999 11.6955L2.06999 10.8855C1.47999 10.4655 1.11999 9.84547 1.11999 9.03547C1.11999 7.38547 2.38999 6.39547 3.87999 6.39547C5.48999 6.39547 6.75999 7.44547 6.75999 9.03547C6.75999 9.68547 6.46999 10.3455 5.94999 10.7455L6.55999 11.5455ZM0.399993 12.1565L0.399993 13.1165L3.51999 13.1165L3.51999 14.1865L0.399993 15.9865L0.399993 17.1865L3.62999 15.1765C3.74999 16.2465 4.59999 16.9165 5.49999 16.9165C6.38999 16.9165 7.47999 16.4565 7.47999 14.6465L7.47999 12.1565L0.399993 12.1565ZM6.63999 13.1165L6.63999 14.3765C6.63999 15.1365 6.45999 15.8965 5.49999 15.8965C4.53999 15.8965 4.35999 15.1365 4.35999 14.3765L4.35999 13.1165L6.63999 13.1165ZM0.219993 20.8198C0.219993 22.9798 1.83999 24.5098 3.93999 24.5098C6.03999 24.5098 7.65999 22.9798 7.65999 20.8198C7.65999 18.6598 6.03999 17.1298 3.93999 17.1298C1.83999 17.1298 0.219993 18.6598 0.219993 20.8198ZM1.11999 20.8198C1.11999 19.1998 2.38999 18.1498 3.93999 18.1498C5.48999 18.1498 6.75999 19.1998 6.75999 20.8198C6.75999 22.4398 5.48999 23.4898 3.93999 23.4898C2.38999 23.4898 1.11999 22.4398 1.11999 20.8198ZM0.399993 25.1901L0.399993 29.4001L1.29999 29.4001L1.29999 26.1501L7.47999 26.1501L7.47999 25.1901L0.399993 25.1901ZM0.399993 29.6756L0.399992 33.8856L1.29999 33.8856L1.29999 30.6356L7.47999 30.6356L7.47999 29.6756L0.399993 29.6756Z"
                fill="black"
              />
            </svg>
