<svg width="77" height="56" viewBox="0 0 77 56" fill="none" xmlns="http://www.w3.org/2000/svg">
<path d="M33.2319 9.57875C17.1407 14.217 1.23014 23.4254 3.52909 31.4011L6.89685 43.0847C9.1958 51.0604 27.5868 50.4573 43.6781 45.8191C59.7693 41.1808 75.6799 31.9724 73.3809 23.9968L69.993 12.2431C67.7142 4.33743 49.3232 4.94052 33.2319 9.57875ZM25.8764 46.1007C16.8167 46.742 10.6123 45.1963 9.78546 42.3279L7.93017 35.8914C11.8448 37.6424 17.9163 37.9383 24.6956 37.2723C23.6795 39.0049 23.4544 41.1157 23.9989 43.0047C24.3417 44.1941 25.0142 45.2126 25.8764 46.1007ZM15.2276 34.3941C20.3891 30.4815 28.4014 26.7323 37.4265 24.1308C46.4516 21.5294 55.2302 20.4387 61.6824 21.0037C56.8801 24.5854 49.188 28.3939 39.4633 31.197C29.7588 34.0701 21.2197 34.9402 15.2276 34.3941ZM70.5125 24.8236C71.8031 29.3011 60.7615 37.7881 42.8512 42.9506C39.0033 44.0598 35.4447 44.8582 32.0355 45.3862C29.7161 45.7517 27.4925 44.3467 26.8673 42.1779C26.5044 40.9186 26.6714 39.658 27.4089 38.5362C28.0764 37.4345 29.2147 36.6517 30.5144 36.4286C33.7635 35.871 37.092 35.0631 40.3103 34.1354C52.4137 30.6467 64.441 24.5277 68.637 18.3171L70.5125 24.8236ZM64.7167 18.3863C57.6929 17.1525 47.3039 18.177 36.5997 21.2624C25.8955 24.3478 16.5552 29.0103 11.2657 33.7933C8.57379 33.1295 6.82102 32.0434 6.39753 30.5742C5.10689 26.0967 16.1485 17.6098 34.0588 12.4472C51.969 7.28464 65.8541 8.66235 67.1245 13.07C67.548 14.5392 66.6422 16.3915 64.7167 18.3863Z" fill="#4AB1D2" fill-opacity="0.52"/>
<path d="M32.1692 42.6956C33.1352 42.4172 33.6926 41.4084 33.4141 40.4424C33.1357 39.4764 32.1269 38.9191 31.1609 39.1975C30.1949 39.4759 29.6376 40.4847 29.916 41.4507C30.1945 42.4167 31.2033 42.974 32.1692 42.6956Z" fill="#4AB1D2" fill-opacity="0.52"/>
<path d="M37.7972 41.4524C38.7631 41.174 39.3205 40.1652 39.0421 39.1992C38.7636 38.2333 37.7548 37.6759 36.7888 37.9543C35.8229 38.2328 35.2655 39.2416 35.544 40.2075C35.8224 41.1735 36.8312 41.7309 37.7972 41.4524Z" fill="#4AB1D2" fill-opacity="0.52"/>
<path d="M43.4344 39.9788C44.4003 39.7004 44.9577 38.6916 44.6793 37.7256C44.4008 36.7596 43.392 36.2023 42.4261 36.4807C41.4601 36.7591 40.9027 37.7679 41.1812 38.7339C41.4596 39.6999 42.4684 40.2572 43.4344 39.9788Z" fill="#4AB1D2" fill-opacity="0.52"/>
<path d="M48.9211 38.2459C49.887 37.9675 50.4444 36.9587 50.166 35.9927C49.8875 35.0267 48.8787 34.4694 47.9127 34.7478C46.9468 35.0262 46.3894 36.035 46.6679 37.001C46.9463 37.967 47.9551 38.5243 48.9211 38.2459Z" fill="#4AB1D2" fill-opacity="0.52"/>
</svg>
