<svg width="67" height="67" viewBox="0 0 67 67" fill="none" xmlns="http://www.w3.org/2000/svg">
<path d="M10.6597 58.0115C16.9143 63.8317 24.9698 67 33.4721 67C33.8769 67 34.2818 67 34.6867 66.9721C53.1432 66.3161 67.6347 50.7676 66.9786 32.316C66.6575 23.3693 62.888 15.0926 56.3263 8.99323C49.7925 2.89387 41.2763 -0.274449 32.3133 0.0186549C13.8568 0.674651 -0.634736 16.2231 0.0214329 34.6887C0.328576 43.6354 4.11202 51.9121 10.6597 58.0115ZM59.7328 49.4556C55.6283 44.8636 53.2549 39.0295 53.0315 32.8184C52.8081 26.6074 54.7766 20.6058 58.5461 15.7346C62.0084 20.5778 63.977 26.3422 64.2003 32.4276C64.4097 38.6387 62.7484 44.5007 59.7328 49.4556ZM32.411 2.81013C32.788 2.79617 33.151 2.79617 33.5279 2.79617C41.3182 2.79617 48.7036 5.6993 54.4416 11.031C55.2792 11.7987 56.0471 12.6221 56.773 13.4735C52.3195 18.9588 49.988 25.7979 50.2393 32.9022C50.4906 40.0065 53.2968 46.6641 58.1133 51.8144C52.7383 59.0303 44.25 63.8317 34.575 64.1806C26.3938 64.4877 18.5617 61.5566 12.5584 55.9737C11.7208 55.206 10.9529 54.3825 10.227 53.5312C14.6805 48.0459 17.012 41.2068 16.7607 34.1025C16.5094 26.9982 13.7032 20.3406 8.88669 15.1903C14.2617 7.96039 22.736 3.15906 32.411 2.81013ZM7.26721 17.5491C11.3718 22.1411 13.7451 27.9752 13.9685 34.1863C14.1919 40.3973 12.2234 46.3989 8.4539 51.2701C4.99156 46.4269 3.02306 40.6625 2.79968 34.5771C2.59026 28.366 4.25163 22.504 7.26721 17.5491Z" fill="#9ED6E7"/>
</svg>
