<svg width="93" height="93" viewBox="0 0 93 93" fill="none" xmlns="http://www.w3.org/2000/svg">
<path d="M64.6458 40.5257C73.0019 47.2107 82.1937 33.0052 80.5225 24.649C85.5362 9.60797 68.8239 3.75866 62.9745 17.9641C55.454 23.8134 54.6184 40.5257 64.6458 40.5257ZM65.4814 38.0189C56.2896 38.8545 59.6321 23.8134 64.6458 19.6354V18.7997C69.6595 6.2655 82.1937 11.2792 77.18 23.8134V24.649C78.8512 31.334 72.1663 44.7038 64.6458 38.0189H65.4814Z" fill="#124C5F"/>
<path d="M37.0705 30.4985C45.4266 37.1834 54.6184 22.9779 52.9472 14.6218C57.9609 -0.419287 41.2485 -6.2686 35.3992 8.77248C27.8787 14.6218 27.0431 31.3341 37.0705 31.3341V30.4985ZM37.9061 27.9916C28.7143 28.8273 32.0568 13.7862 37.0705 9.6081V8.77248C42.0842 -3.76175 54.6184 1.25194 49.6047 13.7862V14.6218C51.2759 21.3067 44.591 34.6766 37.0705 27.9916H37.9061Z" fill="#124C5F"/>
<path d="M78.8511 68.9367C86.3717 73.9503 95.5634 66.4298 92.221 58.0737C95.5634 47.2107 79.6868 41.3613 74.6731 52.2243C67.1525 56.4024 69.6594 68.101 78.0155 68.9367H78.8511ZM79.6868 66.4298H78.8511C72.1662 65.5942 70.495 56.4024 76.3443 53.8956L77.1799 53.06C80.5224 44.7038 93.0566 49.7175 89.7141 58.0737V58.9093C92.221 64.7586 85.5361 71.4435 79.6868 67.2654V66.4298Z" fill="#124C5F"/>
<path d="M8.65949 43.8683C16.18 48.882 25.3718 41.3614 22.0293 33.0053C25.3718 22.1423 9.49511 16.293 4.48141 27.156C-3.03913 31.3341 -0.532283 43.0327 7.82387 43.8683H8.65949ZM9.4951 41.3614H8.65949C1.97456 40.5258 0.303333 31.3341 6.15264 28.8272L6.98826 27.9916C10.3307 19.6354 22.865 24.6491 19.5225 33.0053V33.8409C22.0293 39.6902 15.3444 46.3751 9.4951 42.1971V41.3614Z" fill="#124C5F"/>
<path d="M65.4812 66.4301C73.8373 40.526 30.3853 24.6493 20.3579 49.7178C-5.54617 63.9232 12.0018 81.4712 31.2209 88.9917C50.4401 95.6766 76.3442 94.0054 65.4812 66.4301ZM62.9743 66.4301V67.2657C73.0017 92.3342 49.6045 94.0054 32.0565 87.3205C14.5086 80.6356 -3.03932 65.5945 21.1935 52.2246L22.0291 51.389C31.2209 27.9918 70.4949 43.0329 62.9743 66.4301Z" fill="#124C5F"/>
</svg>
