<svg width="17" height="24" viewBox="0 0 17 24" fill="none" xmlns="http://www.w3.org/2000/svg">
<path d="M8.4 4.8C8.08174 4.8 7.77652 4.92643 7.55147 5.15147C7.32643 5.37652 7.2 5.68174 7.2 6V8.4C7.2 8.71826 7.32643 9.02348 7.55147 9.24853C7.77652 9.47357 8.08174 9.6 8.4 9.6C8.71826 9.6 9.02348 9.47357 9.24853 9.24853C9.47357 9.02348 9.6 8.71826 9.6 8.4V6C9.6 5.68174 9.47357 5.37652 9.24853 5.15147C9.02348 4.92643 8.71826 4.8 8.4 4.8ZM8.4 0C6.17218 0 4.03561 0.884997 2.4603 2.4603C0.884997 4.03561 0 6.17218 0 8.4V15.6C3.31971e-08 17.8278 0.884997 19.9644 2.4603 21.5397C4.03561 23.115 6.17218 24 8.4 24C10.6278 24 12.7644 23.115 14.3397 21.5397C15.915 19.9644 16.8 17.8278 16.8 15.6V8.4C16.8 6.17218 15.915 4.03561 14.3397 2.4603C12.7644 0.884997 10.6278 0 8.4 0ZM14.4 15.6C14.4 17.1913 13.7679 18.7174 12.6426 19.8426C11.5174 20.9679 9.9913 21.6 8.4 21.6C6.8087 21.6 5.28258 20.9679 4.15736 19.8426C3.03214 18.7174 2.4 17.1913 2.4 15.6V8.4C2.4 6.8087 3.03214 5.28258 4.15736 4.15736C5.28258 3.03214 6.8087 2.4 8.4 2.4C9.9913 2.4 11.5174 3.03214 12.6426 4.15736C13.7679 5.28258 14.4 6.8087 14.4 8.4V15.6Z" fill="black"/>
</svg>
