<svg width="42" height="41" viewBox="0 0 42 41" fill="none" xmlns="http://www.w3.org/2000/svg">
<path d="M20.7782 20.013C17.7635 18.1142 14.3833 19.1767 12.1019 20.1431C9.92753 21.0615 7.70269 22.1212 6.53217 23.9796C5.75182 25.2185 5.51861 26.3213 5.83915 27.3692C6.34007 29.1075 8.07203 29.9292 10.0554 30.8708C11.9698 31.7691 13.9658 33.0263 15.6029 34.3651C16.2993 34.9383 16.9631 35.4718 17.6238 35.888C18.5737 36.4862 19.5261 36.8362 20.5821 36.6553C21.6605 36.4694 22.5683 35.7914 23.3399 34.5663C24.5712 32.6116 24.4543 30.0193 24.3598 27.9409C24.24 25.2313 23.724 21.8685 20.7782 20.013ZM20.0569 33.4598C19.6602 33.4791 18.4479 32.5039 17.65 31.8476C16.7971 31.1565 15.8289 30.3737 14.6864 29.654C13.5439 28.9344 12.4334 28.408 11.428 27.9285C10.4914 27.4924 9.10204 26.8288 8.93944 26.4764C8.93944 26.4764 8.92469 26.2556 9.26284 25.7188C9.93047 24.6588 11.7234 23.827 13.3485 23.1394C15.9737 22.0242 17.6589 21.9129 19.0079 22.7626C20.3294 23.5949 20.9395 25.1905 21.069 28.0984C21.1426 29.7214 21.2356 31.7411 20.5506 32.8286C20.2573 33.3553 20.0569 33.4598 20.0569 33.4598Z" fill="#9ED6E7" fill-opacity="0.5"/>
<path d="M25.9169 26.3845C26.2977 26.9705 26.8972 27.6365 27.6544 28.1134C28.3013 28.5209 29.0763 28.8167 29.9161 28.8266C30.9369 28.8543 32.4177 28.518 33.6983 26.729C34.1125 26.1631 34.5679 25.6232 35.0111 25.1333C36.3478 23.5911 38.0272 21.688 36.7426 19.6675C35.9759 18.4732 34.4275 17.9401 32.3522 18.1519C30.7858 18.3189 29.0903 18.9044 27.8113 19.7139C26.4079 20.5989 25.5471 21.6909 25.2358 22.9177C24.9766 24.0618 25.2018 25.2611 25.9169 26.3845ZM29.571 22.4758C31.1559 21.4553 33.1899 21.2175 33.8482 21.3629C33.6242 21.7795 32.9975 22.4999 32.5543 22.9898C32.0764 23.5348 31.5241 24.1675 31.0493 24.8297C30.6923 25.3355 30.3378 25.5929 30.0034 25.5745C29.5292 25.5642 28.9393 25.0965 28.6564 24.6299C28.4214 24.2704 28.3501 23.9563 28.4113 23.7065C28.5006 23.3205 28.9091 22.8857 29.571 22.4758Z" fill="#9ED6E7" fill-opacity="0.5"/>
<path d="M9.14032 11.2609C8.07992 13.1886 8.41619 14.6694 8.88208 15.5781C9.26742 16.3399 9.85523 16.9024 10.5022 17.31C11.2593 17.7868 12.1103 18.0537 12.8119 18.1303C14.134 18.2901 15.3129 17.9752 16.2191 17.2385C17.2049 16.4366 17.7956 15.1936 17.9962 13.5319C18.1826 12.015 17.9784 10.2329 17.4438 8.7618C16.7522 6.80726 15.5889 5.63227 14.1806 5.45662C11.8035 5.17068 10.8124 7.50734 9.99879 9.37901C9.74833 9.99033 9.47185 10.6429 9.14032 11.2609ZM14.759 13.1464C14.6615 13.9117 14.4457 14.468 14.1499 14.7239C13.9424 14.9008 13.6232 14.9497 13.2112 14.9017C12.6768 14.8343 11.9916 14.518 11.7775 14.0948C11.6164 13.8011 11.6955 13.3702 11.9975 12.8298C12.3984 12.1017 12.7218 11.3441 13.0069 10.6777C13.2625 10.0888 13.6068 9.26746 13.8894 8.84939C14.3701 9.45982 14.9877 11.3486 14.759 13.1464Z" fill="#9ED6E7" fill-opacity="0.5"/>
<path d="M21.0988 18.466C21.2003 18.5491 21.3242 18.6271 21.4618 18.7138C22.5355 19.3901 24.16 19.8942 25.7122 19.3529C26.6739 19.0166 27.9477 18.1847 28.5156 16.0621C28.7059 15.3936 28.9548 14.7237 29.1915 14.1037C29.9139 12.1938 30.8137 9.81885 28.908 8.38777C26.5965 6.62416 22.4613 9.03779 20.5677 11.5558C18.2548 14.6173 19.3221 17.1353 21.0988 18.466ZM23.151 13.529C24.2857 12.0327 26.1118 11.0872 26.7777 11.0067C26.7088 11.4824 26.366 12.3624 26.138 12.9687C25.8804 13.6524 25.5845 14.4274 25.3748 15.2182C25.2141 15.8091 24.9662 16.1721 24.6485 16.2796C24.1876 16.4315 23.459 16.1841 23.0583 15.874C22.6438 15.5553 21.9902 15.0667 23.151 13.529Z" fill="#9ED6E7" fill-opacity="0.5"/>
</svg>
