<svg width="103" height="106" viewBox="0 0 103 106" fill="none" xmlns="http://www.w3.org/2000/svg">
<path d="M50.3324 52.8824C43.6735 57.1511 45.7185 64.3785 42.8458 73.9198C38.8028 87.8198 44.7018 94.3807 51.0944 92.6461C57.487 90.9114 58.5123 81.792 64.7989 78.5244C70.7666 74.902 79.1115 78.5229 83.631 73.6435C88.3099 68.9416 85.654 60.327 71.8072 56.9551C62.5715 54.8201 57.2969 49.3073 50.3324 52.8824Z" fill="#D9A6FF"/>
<path d="M29.4227 57.238C36.3109 60.857 40.5716 67.28 38.9657 71.5571C37.1952 75.9881 30.2015 76.6309 23.3133 73.0119C16.4251 69.393 12.1644 62.9699 13.7703 58.6928C15.5408 54.2618 22.5345 53.6191 29.4227 57.238Z" fill="#D9A6FF"/>
<path d="M63.3735 37.6704C62.6152 45.2875 65.8972 51.7579 70.5456 52.3452C75.194 52.9324 79.7167 47.3871 80.475 39.77C81.2332 32.1529 77.9512 25.6825 73.3028 25.0952C68.4823 24.669 63.9596 30.2143 63.3735 37.6704Z" fill="#D9A6FF"/>
<path d="M37.7312 35.3888C43.1182 41.7301 44.2497 49.6372 40.4921 52.8064C36.7345 55.9756 29.2841 53.288 23.8972 46.9467C18.5102 40.6053 17.3787 32.6982 21.1363 29.529C24.8939 26.3598 32.3443 29.0474 37.7312 35.3888Z" fill="#D9A6FF"/>
<path d="M41.2376 33.0583C43.8472 40.388 49.6172 44.7621 54.0091 43.1762C58.5674 41.4347 60.1214 34.3085 57.6658 27.1501C55.0562 19.8204 49.2862 15.4462 44.8943 17.0322C40.3484 18.4468 38.6281 25.7286 41.2376 33.0583Z" fill="#D9A6FF"/>
</svg>
